<?xml version="1.0" encoding="UTF-8" standalone="no"?>
<!-- Created with Inkscape (http://www.inkscape.org/) -->

<svg
   width="731.83801"
   height="1080"
   viewBox="0 0 193.63214 285.75001"
   version="1.1"
   id="svg5"
   inkscape:version="1.1.2 (b8e25be833, 2022-02-05)"
   sodipodi:docname="FaceTest2.svg"
   xmlns:inkscape="http://www.inkscape.org/namespaces/inkscape"
   xmlns:sodipodi="http://sodipodi.sourceforge.net/DTD/sodipodi-0.dtd"
   xmlns="http://www.w3.org/2000/svg"
   xmlns:svg="http://www.w3.org/2000/svg">
  <sodipodi:namedview
     id="namedview7"
     pagecolor="#ffffff"
     bordercolor="#666666"
     borderopacity="1.0"
     inkscape:pageshadow="2"
     inkscape:pageopacity="0.0"
     inkscape:pagecheckerboard="0"
     inkscape:document-units="px"
     showgrid="false"
     inkscape:zoom="1.3152186"
     inkscape:cx="280.94189"
     inkscape:cy="497.25574"
     inkscape:window-width="1920"
     inkscape:window-height="1057"
     inkscape:window-x="-8"
     inkscape:window-y="-8"
     inkscape:window-maximized="1"
     inkscape:current-layer="layer1"
     width="731.83801px"
     units="px"
     height="1080px" />
  <defs
     id="defs2">
    <inkscape:path-effect
       effect="bspline"
       id="path-effect1116"
       is_visible="true"
       lpeversion="1"
       weight="33.333333"
       steps="2"
       helper_size="0"
       apply_no_weight="true"
       apply_with_weight="true"
       only_selected="false" />
    <inkscape:path-effect
       effect="bspline"
       id="path-effect1112"
       is_visible="true"
       lpeversion="1"
       weight="33.333333"
       steps="2"
       helper_size="0"
       apply_no_weight="true"
       apply_with_weight="true"
       only_selected="false" />
    <inkscape:path-effect
       effect="bspline"
       id="path-effect36020"
       is_visible="true"
       lpeversion="1"
       weight="33.333333"
       steps="2"
       helper_size="0"
       apply_no_weight="true"
       apply_with_weight="true"
       only_selected="false" />
    <inkscape:path-effect
       effect="bspline"
       id="path-effect36016"
       is_visible="true"
       lpeversion="1"
       weight="33.333333"
       steps="2"
       helper_size="0"
       apply_no_weight="true"
       apply_with_weight="true"
       only_selected="false" />
    <inkscape:path-effect
       effect="bspline"
       id="path-effect36012"
       is_visible="true"
       lpeversion="1"
       weight="33.333333"
       steps="2"
       helper_size="0"
       apply_no_weight="true"
       apply_with_weight="true"
       only_selected="false" />
    <inkscape:path-effect
       effect="bspline"
       id="path-effect7365"
       is_visible="true"
       lpeversion="1"
       weight="33.333333"
       steps="2"
       helper_size="0"
       apply_no_weight="true"
       apply_with_weight="true"
       only_selected="false" />
    <inkscape:path-effect
       effect="bspline"
       id="path-effect3539"
       is_visible="true"
       lpeversion="1"
       weight="33.333333"
       steps="2"
       helper_size="0"
       apply_no_weight="true"
       apply_with_weight="true"
       only_selected="false" />
    <inkscape:path-effect
       effect="bspline"
       id="path-effect1191"
       is_visible="true"
       lpeversion="1"
       weight="33.333333"
       steps="2"
       helper_size="0"
       apply_no_weight="true"
       apply_with_weight="true"
       only_selected="false" />
    <inkscape:path-effect
       effect="bspline"
       id="path-effect996"
       is_visible="true"
       lpeversion="1"
       weight="33.333333"
       steps="2"
       helper_size="0"
       apply_no_weight="true"
       apply_with_weight="true"
       only_selected="false" />
    <inkscape:path-effect
       effect="bspline"
       id="path-effect24081"
       is_visible="true"
       lpeversion="1"
       weight="33.333333"
       steps="2"
       helper_size="0"
       apply_no_weight="true"
       apply_with_weight="true"
       only_selected="false" />
    <inkscape:path-effect
       effect="bspline"
       id="path-effect25214"
       is_visible="true"
       lpeversion="1"
       weight="33.333333"
       steps="2"
       helper_size="0"
       apply_no_weight="true"
       apply_with_weight="true"
       only_selected="false" />
    <inkscape:path-effect
       effect="bspline"
       id="path-effect35121"
       is_visible="true"
       lpeversion="1"
       weight="33.333333"
       steps="2"
       helper_size="0"
       apply_no_weight="true"
       apply_with_weight="true"
       only_selected="false" />
    <inkscape:path-effect
       effect="bspline"
       id="path-effect35238"
       is_visible="true"
       lpeversion="1"
       weight="33.333333"
       steps="2"
       helper_size="0"
       apply_no_weight="true"
       apply_with_weight="true"
       only_selected="false" />
    <inkscape:path-effect
       effect="bspline"
       id="path-effect35242"
       is_visible="true"
       lpeversion="1"
       weight="33.333333"
       steps="2"
       helper_size="0"
       apply_no_weight="true"
       apply_with_weight="true"
       only_selected="false" />
    <inkscape:path-effect
       effect="bspline"
       id="path-effect35246"
       is_visible="true"
       lpeversion="1"
       weight="33.333333"
       steps="2"
       helper_size="0"
       apply_no_weight="true"
       apply_with_weight="true"
       only_selected="false" />
    <inkscape:path-effect
       effect="bspline"
       id="path-effect35762"
       is_visible="true"
       lpeversion="1"
       weight="33.333333"
       steps="2"
       helper_size="0"
       apply_no_weight="true"
       apply_with_weight="true"
       only_selected="false" />
    <inkscape:path-effect
       effect="bspline"
       id="path-effect9512"
       is_visible="true"
       lpeversion="1"
       weight="33.333333"
       steps="2"
       helper_size="0"
       apply_no_weight="true"
       apply_with_weight="true"
       only_selected="false" />
    <inkscape:path-effect
       effect="bspline"
       id="path-effect24070"
       is_visible="true"
       lpeversion="1"
       weight="33.333333"
       steps="2"
       helper_size="0"
       apply_no_weight="true"
       apply_with_weight="true"
       only_selected="false" />
  </defs>
  <g
     inkscape:label="Layer 1"
     inkscape:groupmode="layer"
     id="layer1">
    <path
       id="path8864"
       style="fill:#2b1100;fill-opacity:1;stroke:#784421;stroke-width:2.6;stroke-linejoin:round;stroke-miterlimit:4;stroke-dasharray:none;stroke-opacity:1"
       d="M 49.030788,-13.023254 C 36.806924,-12.93224 27.453792,-3.0881711 21.509985,6.8473678 16.030716,15.870992 8.3466286,23.106706 -0.0096316,29.416016 -9.7007618,37.024504 -7.578206,50.17968 -5.694556,60.788779 c 3.1988102,15.139853 2.2567136,30.698917 -0.9332764,45.747601 -1.87841,9.01132 -2.6696995,19.70059 4.7304606,26.56272 8.4894004,7.14497 10.2687723,18.96565 17.9653118,26.62008 9.022852,6.10414 20.412684,5.63599 31.015678,6.24044 V 153.20381 H 42.805327 V 100.09439 H 143.39092 v 1.05007 h 6.68125 v 66.61299 c 5.75045,0.11053 11.50076,0.23633 17.25011,0.39997 9.99912,1.27827 19.87549,-4.10671 22.58932,-14.11231 4.43648,-12.55753 15.96146,-23.42831 13.4953,-37.72277 -2.04663,-15.73207 -12.18002,-29.340019 -13.3935,-45.170885 1.88999,-8.403153 8.42825,-16.723577 2.25516,-25.371063 C 185.3117,31.254534 176.61425,17.28723 165.58647,5.5099818 150.87184,-7.821721 129.35109,-6.8958142 110.78567,-6.6841063 93.509586,-5.2140352 76.632265,-9.343866 59.745895,-12.199532 c -2.729918,-0.371317 -5.476553,-0.64873 -8.232572,-0.709001 -0.840282,-0.08349 -1.667611,-0.120789 -2.482535,-0.114721 z" />
    <path
       id="path994"
       style="fill:#784421;stroke:none;stroke-width:0.377952;stroke-linejoin:round"
       d="M 422.50586 128.86328 C 419.5543 128.82645 416.5673 128.83242 413.54297 128.87891 C 397.41323 129.12684 380.25105 130.49876 362.13672 132.31641 C 289.67923 139.58703 201.92569 154.02715 159.62109 207.60547 C 117.3165 261.18379 120.46932 353.89289 110.05664 422.10156 C 99.64396 490.31017 75.670875 534.01903 72.146484 598.17188 C 68.622086 662.32474 85.542133 746.91528 117.97656 807.54102 C 150.411 868.16672 198.35407 904.82485 245.59375 926.67773 C 292.83343 948.53058 339.36317 955.57764 383.78125 948.52734 C 428.19939 941.47713 470.50555 920.33064 523.2207 867.86328 C 575.93589 815.39592 639.05904 731.61232 653.75781 652.77148 C 668.45658 573.93054 634.72583 500.03851 609.17773 412.87305 C 583.62972 325.70758 566.27023 225.28333 529.01172 175.11523 C 502.81431 139.84079 466.77928 129.41572 422.50586 128.86328 z M 268.45898 389.81641 A 57.189221 57.189221 0 0 1 325.64648 447.00391 A 57.189221 57.189221 0 0 1 268.45898 504.19727 A 57.189221 57.189221 0 0 1 211.26562 447.00391 A 57.189221 57.189221 0 0 1 268.45898 389.81641 z M 463.38477 389.81641 A 57.189221 57.189221 0 0 1 520.57227 447.00391 A 57.189221 57.189221 0 0 1 463.38477 504.19727 A 57.189221 57.189221 0 0 1 406.19141 447.00391 A 57.189221 57.189221 0 0 1 463.38477 389.81641 z "
       transform="scale(0.26458334)" />
    <path
       style="fill:#2b1100;fill-opacity:1;stroke:none;stroke-width:0.4;stroke-linejoin:round;stroke-miterlimit:4;stroke-dasharray:none"
       d="M 157.51681,81.148533 C 151.14638,76.991171 145.78183,68.273776 132.97382,62.707893 120.16581,57.14201 99.915038,54.728011 83.418816,57.142088 66.922594,59.556166 54.182043,66.798163 45.129243,75.247494 36.076443,83.696826 30.712,93.352825 25.146344,98.851433 19.580688,104.35004 13.813913,105.69116 11.533888,95.632556 9.2538629,85.573957 10.460862,64.116185 25.750198,47.55287 41.039534,30.989555 70.409859,19.321892 97.165882,18.450344 123.9219,17.578797 148.0619,27.503016 161.20492,40.311118 c 13.14303,12.808102 15.28881,28.499094 12.67362,36.545769 -2.6152,8.046675 -9.9913,8.449008 -16.36173,4.291646 z"
       id="path9510"
       inkscape:path-effect="#path-effect9512"
       inkscape:original-d="M 156.51074,85.708251 C 151.14646,76.991123 145.78191,68.273728 140.41709,59.55607 120.16578,57.142239 99.915011,54.72824 79.663569,52.313928 66.922772,59.55648 54.182222,66.798478 41.44115,74.040354 36.076757,83.697 30.712317,93.353001 25.347502,103.00892 19.58076,104.35035 13.813984,105.69146 8.046829,107.03234 9.254141,85.573973 10.461141,64.116201 11.6679,42.657738 41.039661,30.989874 70.409986,19.322211 99.780631,7.654051 c 24.141219,9.92488 48.281209,19.849099 72.421419,29.773251 2.14613,15.691887 4.2919,31.38288 6.43746,47.073923 -7.37615,0.402615 -14.75225,0.804949 -22.12877,1.207026 z"
       sodipodi:nodetypes="ccccccccccc" />
    <path
       style="color:#000000;fill:#784421;stroke-linecap:round;stroke-linejoin:round;-inkscape-stroke:none"
       d="m 15.744637,34.102413 a 1.2184449,1.2184449 0 0 0 -0.820313,0.441406 c -3.604192,4.425036 -4.818037,10.212887 -3.251953,15.607422 1.566084,5.394535 5.713492,9.769588 11.179687,11.859375 a 1.2184449,1.2184449 0 0 0 1.574219,-0.703125 1.2184449,1.2184449 0 0 0 -0.703125,-1.574219 C 18.931401,57.901333 15.35532,54.098017 14.012215,49.471553 12.66911,44.84509 13.694055,39.912152 16.812996,36.082882 a 1.2184449,1.2184449 0 0 0 -0.175781,-1.712891 1.2184449,1.2184449 0 0 0 -0.892578,-0.267578 z"
       id="path11431" />
    <path
       style="color:#000000;fill:#784421;stroke-linecap:round;stroke-linejoin:round;-inkscape-stroke:none"
       d="m 97.107035,18.32396 a 1.2184449,1.2184449 0 0 0 -0.643992,-0.674354 c -5.218866,-2.309671 -11.121941,-1.954218 -15.91252,0.979035 -4.79058,2.933253 -7.914639,8.088974 -8.488945,13.912777 a 1.2184449,1.2184449 0 0 0 1.090978,1.331702 1.2184449,1.2184449 0 0 0 1.333069,-1.093377 c 0.503447,-5.105236 3.229073,-9.55771 7.337571,-12.073328 4.108498,-2.515617 9.137109,-2.827831 13.653332,-0.829124 a 1.2184449,1.2184449 0 0 0 1.607785,-0.621785 1.2184449,1.2184449 0 0 0 0.02272,-0.931546 z"
       id="path23556" />
    <path
       style="color:#000000;fill:#784421;stroke-linecap:round;stroke-linejoin:round;-inkscape-stroke:none"
       d="m 176.56688,62.963261 a 1.2184449,1.2184449 0 0 0 0.39647,-0.845875 c 0.2598,-5.701191 -2.21263,-11.07077 -6.68352,-14.471477 -4.4709,-3.400692 -10.40818,-4.445065 -16.0438,-2.868255 a 1.2184449,1.2184449 0 0 0 -0.8458,1.502382 1.2184449,1.2184449 0 0 0 1.50238,0.845804 c 4.94027,-1.382258 10.0781,-0.456888 13.91242,2.459623 3.83434,2.916513 5.94777,7.487998 5.72296,12.421613 a 1.2184449,1.2184449 0 0 0 1.16252,1.272838 1.2184449,1.2184449 0 0 0 0.87637,-0.316653 z"
       id="path23554" />
    <path
       style="color:#000000;fill:#2b1100;stroke-linecap:round;stroke-linejoin:round;-inkscape-stroke:none"
       d="m 95.551281,137.0614 a 1.5,1.5 0 0 0 -0.85157,1.94336 c 1.67655,4.29195 3.38997,8.71169 6.244139,12.72851 1.42708,2.00839 3.0602,3.81982 4.26368,5.42578 1.20347,1.60596 1.8586,2.96959 1.83007,3.81446 -0.0285,0.84492 -0.66282,1.88523 -2.08007,2.91992 -1.41726,1.03468 -3.51315,1.9693 -5.884769,2.58593 -4.74324,1.23328 -10.753034,1.25782 -16.855468,1.25782 a 1.5,1.5 0 0 0 -1.5,1.5 1.5,1.5 0 0 0 1.5,1.5 c 6.102434,0 12.296118,0.0265 17.611328,-1.35547 2.657599,-0.69099 5.055069,-1.71867 6.898439,-3.06445 1.84337,-1.34578 3.23638,-3.1032 3.30859,-5.24219 0.0722,-2.13904 -1.09986,-3.94484 -2.42773,-5.7168 -1.32788,-1.77196 -2.92991,-3.54944 -4.21875,-5.36328 -2.57766,-3.62765 -4.217989,-7.79007 -5.894529,-12.08203 a 1.5,1.5 0 0 0 -1.94336,-0.85156 z"
       id="path36227" />
    <path
       id="path17836"
       style="fill:#5b2e12;fill-opacity:1;stroke-width:3;stroke-linecap:round;stroke-linejoin:round"
       d="m 170.08335,138.06417 c -2.24825,0.1743 -4.22405,2.3105 -5.78879,5.75934 -3.28591,7.24241 -4.76127,20.25109 -7.51066,30.5108 -2.74938,10.25971 -6.77253,17.77017 -12.07006,24.67704 -5.29753,6.90687 -11.86912,13.21034 -18.10536,16.76436 -6.23624,3.55401 -12.13718,4.35857 -17.76997,3.08456 -5.63279,-1.274 -10.997112,-4.62699 -16.093593,-4.89531 -5.096484,-0.26832 -9.924649,2.54792 -15.087969,3.28559 -5.16332,0.73767 -10.661721,-0.60352 -15.691033,-2.81637 -5.029313,-2.21284 -9.589296,-5.29724 -14.283367,-10.0583 -4.694068,-4.76105 -9.52214,-11.19835 -12.539803,-18.64175 -3.017663,-7.4434 -4.224613,-15.89215 -4.559927,-21.92735 -0.335317,-6.03519 0.201051,-9.65612 -2.548165,-13.00902 -1.59692,-1.94758 -4.304721,-3.79533 -7.383013,-4.37906 -0.763281,3.73663 -1.331199,7.62412 -1.563212,11.84734 -0.932497,16.97378 3.544266,39.35554 12.125876,55.3961 8.58161,16.04055 21.26655,25.73916 33.76538,31.52107 12.498835,5.7819 24.810342,7.64695 36.562626,5.78156 11.7523,-1.86537 22.94529,-7.46037 36.89284,-21.34236 13.94756,-13.88199 30.6489,-36.05026 34.53795,-56.91023 2.17713,-11.67767 0.33659,-22.94526 -2.88975,-34.64801 z" />
  </g>
</svg>
