<?xml version="1.0" encoding="UTF-8" standalone="no"?>
<!-- Created with Inkscape (http://www.inkscape.org/) -->

<svg
   width="731.83801"
   height="1080"
   viewBox="0 0 193.63214 285.75001"
   version="1.1"
   id="svg5"
   inkscape:version="1.1.2 (b8e25be833, 2022-02-05)"
   sodipodi:docname="FaceTest3.svg"
   xmlns:inkscape="http://www.inkscape.org/namespaces/inkscape"
   xmlns:sodipodi="http://sodipodi.sourceforge.net/DTD/sodipodi-0.dtd"
   xmlns="http://www.w3.org/2000/svg"
   xmlns:svg="http://www.w3.org/2000/svg">
  <sodipodi:namedview
     id="namedview7"
     pagecolor="#ffffff"
     bordercolor="#666666"
     borderopacity="1.0"
     inkscape:pageshadow="2"
     inkscape:pageopacity="0.0"
     inkscape:pagecheckerboard="0"
     inkscape:document-units="px"
     showgrid="false"
     inkscape:zoom="0.93"
     inkscape:cx="342.47312"
     inkscape:cy="508.60215"
     inkscape:window-width="1920"
     inkscape:window-height="1057"
     inkscape:window-x="-8"
     inkscape:window-y="-8"
     inkscape:window-maximized="1"
     inkscape:current-layer="layer1"
     width="731.83801px"
     units="px"
     height="1080px" />
  <defs
     id="defs2">
    <inkscape:path-effect
       effect="bspline"
       id="path-effect1116"
       is_visible="true"
       lpeversion="1"
       weight="33.333333"
       steps="2"
       helper_size="0"
       apply_no_weight="true"
       apply_with_weight="true"
       only_selected="false" />
    <inkscape:path-effect
       effect="bspline"
       id="path-effect1112"
       is_visible="true"
       lpeversion="1"
       weight="33.333333"
       steps="2"
       helper_size="0"
       apply_no_weight="true"
       apply_with_weight="true"
       only_selected="false" />
    <inkscape:path-effect
       effect="bspline"
       id="path-effect36020"
       is_visible="true"
       lpeversion="1"
       weight="33.333333"
       steps="2"
       helper_size="0"
       apply_no_weight="true"
       apply_with_weight="true"
       only_selected="false" />
    <inkscape:path-effect
       effect="bspline"
       id="path-effect36016"
       is_visible="true"
       lpeversion="1"
       weight="33.333333"
       steps="2"
       helper_size="0"
       apply_no_weight="true"
       apply_with_weight="true"
       only_selected="false" />
    <inkscape:path-effect
       effect="bspline"
       id="path-effect36012"
       is_visible="true"
       lpeversion="1"
       weight="33.333333"
       steps="2"
       helper_size="0"
       apply_no_weight="true"
       apply_with_weight="true"
       only_selected="false" />
    <inkscape:path-effect
       effect="bspline"
       id="path-effect7365"
       is_visible="true"
       lpeversion="1"
       weight="33.333333"
       steps="2"
       helper_size="0"
       apply_no_weight="true"
       apply_with_weight="true"
       only_selected="false" />
    <inkscape:path-effect
       effect="bspline"
       id="path-effect3539"
       is_visible="true"
       lpeversion="1"
       weight="33.333333"
       steps="2"
       helper_size="0"
       apply_no_weight="true"
       apply_with_weight="true"
       only_selected="false" />
    <inkscape:path-effect
       effect="bspline"
       id="path-effect1191"
       is_visible="true"
       lpeversion="1"
       weight="33.333333"
       steps="2"
       helper_size="0"
       apply_no_weight="true"
       apply_with_weight="true"
       only_selected="false" />
    <inkscape:path-effect
       effect="bspline"
       id="path-effect996"
       is_visible="true"
       lpeversion="1"
       weight="33.333333"
       steps="2"
       helper_size="0"
       apply_no_weight="true"
       apply_with_weight="true"
       only_selected="false" />
    <inkscape:path-effect
       effect="bspline"
       id="path-effect24081"
       is_visible="true"
       lpeversion="1"
       weight="33.333333"
       steps="2"
       helper_size="0"
       apply_no_weight="true"
       apply_with_weight="true"
       only_selected="false" />
    <inkscape:path-effect
       effect="bspline"
       id="path-effect25214"
       is_visible="true"
       lpeversion="1"
       weight="33.333333"
       steps="2"
       helper_size="0"
       apply_no_weight="true"
       apply_with_weight="true"
       only_selected="false" />
    <inkscape:path-effect
       effect="bspline"
       id="path-effect35121"
       is_visible="true"
       lpeversion="1"
       weight="33.333333"
       steps="2"
       helper_size="0"
       apply_no_weight="true"
       apply_with_weight="true"
       only_selected="false" />
    <inkscape:path-effect
       effect="bspline"
       id="path-effect35238"
       is_visible="true"
       lpeversion="1"
       weight="33.333333"
       steps="2"
       helper_size="0"
       apply_no_weight="true"
       apply_with_weight="true"
       only_selected="false" />
    <inkscape:path-effect
       effect="bspline"
       id="path-effect35242"
       is_visible="true"
       lpeversion="1"
       weight="33.333333"
       steps="2"
       helper_size="0"
       apply_no_weight="true"
       apply_with_weight="true"
       only_selected="false" />
    <inkscape:path-effect
       effect="bspline"
       id="path-effect35246"
       is_visible="true"
       lpeversion="1"
       weight="33.333333"
       steps="2"
       helper_size="0"
       apply_no_weight="true"
       apply_with_weight="true"
       only_selected="false" />
    <inkscape:path-effect
       effect="bspline"
       id="path-effect35762"
       is_visible="true"
       lpeversion="1"
       weight="33.333333"
       steps="2"
       helper_size="0"
       apply_no_weight="true"
       apply_with_weight="true"
       only_selected="false" />
  </defs>
  <g
     inkscape:label="Layer 1"
     inkscape:groupmode="layer"
     id="layer1">
    <path
       style="fill:#2b1100;fill-opacity:1;stroke:#784421;stroke-width:3;stroke-linecap:round;stroke-linejoin:round;stroke-miterlimit:4;stroke-dasharray:none;stroke-opacity:1"
       d="m 124.26139,34.9904 c -0.13411,-10.259702 -0.26822,-20.9888 4.22477,-27.4934969 4.49299,-6.5046971 13.61254,-8.784585 22.19584,-12.5398205 8.5833,-3.7552355 16.62996,-8.9855656 24.14053,-9.6559876 7.51056,-0.670421 14.48434,3.218801 18.37352,6.9740877 3.88918,3.7552871 4.69385,7.37628704 8.51626,12.2714724 3.82242,4.8951854 10.66208,11.0642899 13.07595,17.4347199 2.41386,6.370429 0.4022,12.941868 -0.73775,19.915899 -1.13995,6.974032 -1.40817,14.350142 -4.49276,18.976931 -3.08459,4.62679 -8.98548,6.504345 -14.88663,10.796085 -5.90115,4.291739 -11.80204,10.997295 -19.51353,13.947792 -7.71148,2.950497 -17.23337,2.145833 -25.95085,-1.944596 C 140.48926,79.583058 132.57671,72.206949 128.55316,63.623579 124.52962,55.04021 124.39551,45.250101 124.26139,34.9904 Z"
       id="path24079"
       inkscape:path-effect="#path-effect24081"
       inkscape:original-d="m 124.26139,35.459531 c -0.13385,-10.728836 -0.26797,-21.457934 -0.40234,-32.187299 9.12018,-2.279715 18.23973,-4.559603 27.3592,-6.8398013 8.04725,-5.2302761 16.09391,-10.4606077 24.14047,-15.6913087 6.97432,3.889641 13.9481,7.778862 20.92175,11.6678962 0.80496,3.6214082 1.60963,7.2424068 2.41404,10.8632138 6.84021,6.16962 13.67987,12.338727 20.51941,18.507697 -2.01149,6.57197 -4.02315,13.14341 -6.03512,19.714721 -0.26797,7.376666 -0.53619,14.752776 -0.80468,22.128766 -5.90086,1.877897 -11.80175,3.755451 -17.70302,5.632779 -5.90085,6.706084 -11.80174,13.411639 -17.70301,20.117056 -9.522,-0.80443 -19.04389,-1.60909 -28.56623,-2.41404 C 140.48925,79.58307 132.5767,72.20696 124.66373,64.83044 124.52988,55.040206 124.39576,45.250098 124.26139,35.459531 Z" />
    <path
       style="fill:#2b1100;fill-opacity:1;stroke:#784421;stroke-width:3;stroke-linecap:round;stroke-linejoin:round;stroke-miterlimit:4;stroke-dasharray:none;stroke-opacity:1"
       d="M 65.921971,51.016979 C 65.117397,42.165533 61.093985,34.789278 58.277525,27.14471 55.461065,19.500143 53.851732,11.587589 47.481336,6.7593476 41.110939,1.9311061 29.979722,0.18766251 20.994038,-1.4887624 12.008354,-3.1651873 5.1686901,-4.7745201 -0.59841454,-2.695721 -6.3655192,-0.6169219 -11.059407,5.1498541 -16.960459,11.050895 c -5.901052,5.90104 -13.008938,11.936038 -15.020577,20.050188 -2.011639,8.114151 1.072915,18.306591 2.7493,25.884049 1.676384,7.577457 1.944606,12.539567 6.303539,16.697051 4.358933,4.157484 12.80793,7.51026 19.1112595,12.33851 6.3033298,4.828249 10.4607727,11.131469 17.5017635,10.59477 7.040992,-0.5367 16.96521,-7.912808 25.48161,-11.735041 8.5164,-3.822234 15.624286,-4.090456 20.385198,-9.387952 4.760913,-5.297495 7.174911,-15.624045 6.370337,-24.475491 z"
       id="path25212"
       inkscape:path-effect="#path-effect25214"
       inkscape:original-d="M 69.140637,49.541473 C 65.117488,42.165483 61.094078,34.789227 57.0704,27.412705 55.461268,19.500102 53.851934,11.587548 52.242305,3.674573 41.110905,1.931324 29.979688,0.18788 18.847982,-1.555863 12.008309,-3.164996 5.168645,-4.7743284 -1.6714202,-6.3839579 -6.3652306,-0.616687 -11.059118,5.150089 -15.753363,10.916715 c -7.107906,6.035505 -14.215793,12.070502 -21.324085,18.105355 3.084942,10.193113 6.169496,20.385553 9.253848,30.577933 0.268497,4.962573 0.536719,9.924683 0.804682,14.886626 8.449599,3.353176 16.898596,6.705952 25.3474978,10.058532 4.1578742,6.30374 8.3153172,12.60696 12.4725782,18.910039 9.924881,-7.376139 19.849098,-14.752249 29.773252,-22.128769 7.108436,-0.267967 14.216322,-0.536191 21.324086,-0.804683 2.41436,-10.326701 4.828357,-20.653251 7.242141,-30.980275 z" />
    <path
       id="path994-8"
       style="fill:#784421;stroke:none;stroke-width:0.377952;stroke-linejoin:round"
       d="M 422.50586 128.86328 C 419.5543 128.82645 416.5673 128.83242 413.54297 128.87891 C 397.41323 129.12684 380.25105 130.49876 362.13672 132.31641 C 289.67923 139.58703 201.92569 154.02715 159.62109 207.60547 C 117.3165 261.18379 120.46932 353.89289 110.05664 422.10156 C 99.64396 490.31017 75.670875 534.01903 72.146484 598.17188 C 68.622086 662.32474 85.542133 746.91528 117.97656 807.54102 C 150.411 868.16672 198.35407 904.82485 245.59375 926.67773 C 292.83343 948.53058 339.36317 955.57764 383.78125 948.52734 C 428.19939 941.47713 470.50555 920.33064 523.2207 867.86328 C 575.93589 815.39592 639.05904 731.61232 653.75781 652.77148 C 668.45658 573.93054 634.72583 500.03851 609.17773 412.87305 C 583.62972 325.70758 566.27023 225.28333 529.01172 175.11523 C 502.81431 139.84079 466.77928 129.41572 422.50586 128.86328 z M 268.45898 389.81641 A 57.189221 57.189221 0 0 1 325.64648 447.00391 A 57.189221 57.189221 0 0 1 268.45898 504.19727 A 57.189221 57.189221 0 0 1 211.26562 447.00391 A 57.189221 57.189221 0 0 1 268.45898 389.81641 z M 463.38477 389.81641 A 57.189221 57.189221 0 0 1 520.57227 447.00391 A 57.189221 57.189221 0 0 1 463.38477 504.19727 A 57.189221 57.189221 0 0 1 406.19141 447.00391 A 57.189221 57.189221 0 0 1 463.38477 389.81641 z "
       transform="scale(0.26458334)" />
    <path
       style="fill:#2b1100;fill-opacity:1;stroke:#784421;stroke-width:3;stroke-linecap:round;stroke-linejoin:round;stroke-miterlimit:4;stroke-dasharray:none;stroke-opacity:1"
       d="M 46.230278,49.650345 C 59.973144,35.77748 75.35202,30.55463 94.87948,30.588966 c 19.25125,0.03385 29.227,0.448278 42.95922,13.940412 15.96565,15.686517 26.03991,40.961706 22.19087,56.899642 C 148.77987,120.28415 134.69099,81.431719 132.33851,78.587162 113.35005,58.252913 69.526825,65.899721 51.635745,82.652141 44.16512,94.537891 37.303521,132.65443 25.461909,119.63691 17.619364,108.97644 30.187419,65.84496 46.230278,49.650345 Z"
       id="path26175"
       sodipodi:nodetypes="sssccccs" />
    <path
       style="color:#000000;fill:#784421;stroke-linecap:round;stroke-linejoin:round;-inkscape-stroke:none"
       d="m -12.136224,34.102413 a 1.2184449,1.2184449 0 0 0 -0.820312,0.441406 c -3.604192,4.425036 -4.818037,10.212887 -3.251953,15.607422 1.566083,5.394536 5.713491,9.769588 11.1796871,11.859375 a 1.2184449,1.2184449 0 0 0 1.5742188,-0.703125 1.2184449,1.2184449 0 0 0 -0.703125,-1.574219 C -8.94946,57.901333 -12.525541,54.098017 -13.868646,49.471553 c -1.343105,-4.626463 -0.318159,-9.559401 2.800782,-13.388671 a 1.2184449,1.2184449 0 0 0 -0.175782,-1.712891 1.2184449,1.2184449 0 0 0 -0.892578,-0.267578 z"
       id="path11431" />
    <path
       style="color:#000000;fill:#784421;stroke-linecap:round;stroke-linejoin:round;-inkscape-stroke:none"
       d="m 178.25831,18.690303 a 1.2184449,1.2184449 0 0 0 -1.40039,1.003907 1.2184449,1.2184449 0 0 0 1.0039,1.40039 c 5.0618,0.833753 9.32863,3.844304 11.57227,8.107422 2.24365,4.263112 2.22902,9.300759 -0.0586,13.677735 a 1.2184449,1.2184449 0 0 0 0.51563,1.642578 1.2184449,1.2184449 0 0 0 1.64453,-0.513672 c 2.64353,-5.057955 2.67083,-10.970546 0.0547,-15.941406 -2.61612,-4.970869 -7.55779,-8.425849 -13.33203,-9.376954 z"
       id="path11431-4" />
    <path
       style="color:#000000;fill:#784421;stroke-linecap:round;stroke-linejoin:round;-inkscape-stroke:none"
       d="m 17.805182,10.450069 a 1.2184449,1.2184449 0 0 0 -1.490234,0.861328 1.2184449,1.2184449 0 0 0 0.861328,1.492188 c 4.956266,1.323752 8.907716,4.73554 10.72461,9.197265 1.816894,4.461725 1.311278,9.474596 -1.392579,13.607422 a 1.2184449,1.2184449 0 0 0 0.353516,1.685547 1.2184449,1.2184449 0 0 0 1.685547,-0.351562 c 3.124528,-4.775821 3.729858,-10.658882 1.611328,-15.861329 -2.118529,-5.202447 -6.69965,-9.120787 -12.353516,-10.630859 z"
       id="path11431-2" />
    <path
       style="fill:none;fill-opacity:1;stroke:#2b1100;stroke-width:3;stroke-linecap:round;stroke-linejoin:round;stroke-miterlimit:4;stroke-dasharray:none;stroke-opacity:1"
       d="m 78.193314,178.6782 c 2.280216,1.91136 4.560155,3.82248 7.124982,3.67145 2.564827,-0.15104 5.414639,-2.36383 8.532983,-2.44754 3.118345,-0.0837 6.504571,1.96144 9.253811,1.99487 2.74925,0.0334 4.86149,-1.94471 6.97377,-3.92288"
       id="path35119"
       inkscape:path-effect="#path-effect35121"
       inkscape:original-d="m 78.193314,178.6782 c 2.280196,1.91138 4.560131,3.82251 6.8398,5.73336 2.850239,-2.21265 5.700046,-4.42545 8.549756,-6.63863 3.38671,2.04554 6.77294,4.09069 10.15912,6.13571 2.1126,-1.97796 4.22484,-3.9561 6.33687,-5.93454"
       sodipodi:nodetypes="ccccc" />
    <path
       style="fill:none;fill-opacity:1;stroke:#2b1100;stroke-width:3;stroke-linecap:round;stroke-linejoin:round;stroke-miterlimit:4;stroke-dasharray:none;stroke-opacity:1"
       d="m 100.85656,145.23803 c 0.26825,3.0849 0.53648,6.16952 1.60948,9.52241 1.07299,3.3529 2.95055,6.97389 4.82798,10.59465"
       id="path35236"
       inkscape:path-effect="#path-effect35238"
       inkscape:original-d="m 100.85656,145.23803 c 0.26849,3.08488 0.53672,6.1695 0.80468,9.25385 1.8779,3.6214 3.75545,7.2424 5.63278,10.86321" />
    <path
       style="fill:none;fill-opacity:1;stroke:#2b1100;stroke-width:3;stroke-linecap:round;stroke-linejoin:round;stroke-miterlimit:4;stroke-dasharray:none;stroke-opacity:1"
       d="m 83.757061,174.60894 c 1.475503,-0.0671 2.950756,-0.13412 4.425754,-0.20117"
       id="path35240"
       inkscape:path-effect="#path-effect35242"
       inkscape:original-d="m 83.757061,174.60894 c 1.475515,-0.0668 2.950768,-0.13385 4.425754,-0.20117" />
    <path
       style="fill:none;fill-opacity:1;stroke:#2b1100;stroke-width:3;stroke-linecap:round;stroke-linejoin:round;stroke-miterlimit:4;stroke-dasharray:none;stroke-opacity:1"
       d="m 100.65539,174.00543 c 1.47554,0.20121 2.9508,0.40238 4.42575,0.60351"
       id="path35244"
       inkscape:path-effect="#path-effect35246"
       inkscape:original-d="m 100.65539,174.00543 c 1.47551,0.20143 2.95077,0.4026 4.42575,0.60351" />
    <path
       style="fill:none;fill-opacity:1;stroke:#2b1100;stroke-width:3;stroke-linecap:round;stroke-linejoin:round;stroke-miterlimit:4;stroke-dasharray:none;stroke-opacity:1"
       d="m 83.55589,162.33753 c -1.877417,0.5364 -3.755011,1.07286 -4.928621,2.22972 -1.17361,1.15687 -1.643,2.93385 -2.112349,4.71067"
       id="path35760"
       inkscape:path-effect="#path-effect35762"
       inkscape:original-d="m 83.55589,162.33753 c -1.877327,0.53672 -3.754919,1.07318 -5.632776,1.60936 -0.469143,1.77731 -0.938532,3.55429 -1.408194,5.33103" />
  </g>
</svg>
