<?xml version="1.0" encoding="UTF-8" standalone="no"?>
<!-- Created with Inkscape (http://www.inkscape.org/) -->

<svg
   width="731.83801"
   height="1080"
   viewBox="0 0 193.63214 285.75001"
   version="1.1"
   id="svg5"
   inkscape:version="1.1.2 (b8e25be833, 2022-02-05)"
   sodipodi:docname="FaceTest4.svg"
   xmlns:inkscape="http://www.inkscape.org/namespaces/inkscape"
   xmlns:sodipodi="http://sodipodi.sourceforge.net/DTD/sodipodi-0.dtd"
   xmlns="http://www.w3.org/2000/svg"
   xmlns:svg="http://www.w3.org/2000/svg">
  <sodipodi:namedview
     id="namedview7"
     pagecolor="#ffffff"
     bordercolor="#666666"
     borderopacity="1.0"
     inkscape:pageshadow="2"
     inkscape:pageopacity="0.0"
     inkscape:pagecheckerboard="0"
     inkscape:document-units="px"
     showgrid="false"
     inkscape:zoom="1.3152186"
     inkscape:cx="348.61125"
     inkscape:cy="496.49541"
     inkscape:window-width="1920"
     inkscape:window-height="1057"
     inkscape:window-x="-8"
     inkscape:window-y="-8"
     inkscape:window-maximized="1"
     inkscape:current-layer="layer1"
     width="731.83801px"
     units="px"
     height="1080px"
     inkscape:snap-global="false" />
  <defs
     id="defs2">
    <inkscape:path-effect
       effect="bspline"
       id="path-effect16557"
       is_visible="true"
       lpeversion="1"
       weight="33.333333"
       steps="2"
       helper_size="0"
       apply_no_weight="true"
       apply_with_weight="true"
       only_selected="false" />
    <inkscape:path-effect
       effect="bspline"
       id="path-effect16365"
       is_visible="true"
       lpeversion="1"
       weight="33.333333"
       steps="2"
       helper_size="0"
       apply_no_weight="true"
       apply_with_weight="true"
       only_selected="false" />
    <inkscape:path-effect
       effect="bspline"
       id="path-effect16361"
       is_visible="true"
       lpeversion="1"
       weight="33.333333"
       steps="2"
       helper_size="0"
       apply_no_weight="true"
       apply_with_weight="true"
       only_selected="false" />
    <inkscape:path-effect
       effect="bspline"
       id="path-effect16291"
       is_visible="true"
       lpeversion="1"
       weight="33.333333"
       steps="2"
       helper_size="0"
       apply_no_weight="true"
       apply_with_weight="true"
       only_selected="false" />
    <inkscape:path-effect
       effect="bspline"
       id="path-effect13853"
       is_visible="true"
       lpeversion="1"
       weight="33.333333"
       steps="2"
       helper_size="0"
       apply_no_weight="true"
       apply_with_weight="true"
       only_selected="false" />
    <inkscape:path-effect
       effect="bspline"
       id="path-effect1116"
       is_visible="true"
       lpeversion="1"
       weight="33.333333"
       steps="2"
       helper_size="0"
       apply_no_weight="true"
       apply_with_weight="true"
       only_selected="false" />
    <inkscape:path-effect
       effect="bspline"
       id="path-effect1112"
       is_visible="true"
       lpeversion="1"
       weight="33.333333"
       steps="2"
       helper_size="0"
       apply_no_weight="true"
       apply_with_weight="true"
       only_selected="false" />
    <inkscape:path-effect
       effect="bspline"
       id="path-effect36020"
       is_visible="true"
       lpeversion="1"
       weight="33.333333"
       steps="2"
       helper_size="0"
       apply_no_weight="true"
       apply_with_weight="true"
       only_selected="false" />
    <inkscape:path-effect
       effect="bspline"
       id="path-effect36016"
       is_visible="true"
       lpeversion="1"
       weight="33.333333"
       steps="2"
       helper_size="0"
       apply_no_weight="true"
       apply_with_weight="true"
       only_selected="false" />
    <inkscape:path-effect
       effect="bspline"
       id="path-effect36012"
       is_visible="true"
       lpeversion="1"
       weight="33.333333"
       steps="2"
       helper_size="0"
       apply_no_weight="true"
       apply_with_weight="true"
       only_selected="false" />
    <inkscape:path-effect
       effect="bspline"
       id="path-effect7365"
       is_visible="true"
       lpeversion="1"
       weight="33.333333"
       steps="2"
       helper_size="0"
       apply_no_weight="true"
       apply_with_weight="true"
       only_selected="false" />
    <inkscape:path-effect
       effect="bspline"
       id="path-effect3539"
       is_visible="true"
       lpeversion="1"
       weight="33.333333"
       steps="2"
       helper_size="0"
       apply_no_weight="true"
       apply_with_weight="true"
       only_selected="false" />
    <inkscape:path-effect
       effect="bspline"
       id="path-effect1191"
       is_visible="true"
       lpeversion="1"
       weight="33.333333"
       steps="2"
       helper_size="0"
       apply_no_weight="true"
       apply_with_weight="true"
       only_selected="false" />
    <inkscape:path-effect
       effect="bspline"
       id="path-effect996"
       is_visible="true"
       lpeversion="1"
       weight="33.333333"
       steps="2"
       helper_size="0"
       apply_no_weight="true"
       apply_with_weight="true"
       only_selected="false" />
    <inkscape:path-effect
       effect="bspline"
       id="path-effect24081"
       is_visible="true"
       lpeversion="1"
       weight="33.333333"
       steps="2"
       helper_size="0"
       apply_no_weight="true"
       apply_with_weight="true"
       only_selected="false" />
    <inkscape:path-effect
       effect="bspline"
       id="path-effect25214"
       is_visible="true"
       lpeversion="1"
       weight="33.333333"
       steps="2"
       helper_size="0"
       apply_no_weight="true"
       apply_with_weight="true"
       only_selected="false" />
    <inkscape:path-effect
       effect="bspline"
       id="path-effect35121"
       is_visible="true"
       lpeversion="1"
       weight="33.333333"
       steps="2"
       helper_size="0"
       apply_no_weight="true"
       apply_with_weight="true"
       only_selected="false" />
    <inkscape:path-effect
       effect="bspline"
       id="path-effect35238"
       is_visible="true"
       lpeversion="1"
       weight="33.333333"
       steps="2"
       helper_size="0"
       apply_no_weight="true"
       apply_with_weight="true"
       only_selected="false" />
    <inkscape:path-effect
       effect="bspline"
       id="path-effect35242"
       is_visible="true"
       lpeversion="1"
       weight="33.333333"
       steps="2"
       helper_size="0"
       apply_no_weight="true"
       apply_with_weight="true"
       only_selected="false" />
    <inkscape:path-effect
       effect="bspline"
       id="path-effect35246"
       is_visible="true"
       lpeversion="1"
       weight="33.333333"
       steps="2"
       helper_size="0"
       apply_no_weight="true"
       apply_with_weight="true"
       only_selected="false" />
    <inkscape:path-effect
       effect="bspline"
       id="path-effect35762"
       is_visible="true"
       lpeversion="1"
       weight="33.333333"
       steps="2"
       helper_size="0"
       apply_no_weight="true"
       apply_with_weight="true"
       only_selected="false" />
    <inkscape:path-effect
       effect="bspline"
       id="path-effect16365-3"
       is_visible="true"
       lpeversion="1"
       weight="33.333333"
       steps="2"
       helper_size="0"
       apply_no_weight="true"
       apply_with_weight="true"
       only_selected="false" />
  </defs>
  <g
     inkscape:label="Layer 1"
     inkscape:groupmode="layer"
     id="layer1">
    <path
       style="fill:#2b1100;fill-opacity:1;stroke:none;stroke-width:3;stroke-linecap:round;stroke-linejoin:round"
       d="m 21.337366,164.85045 -5.97446,43.52822 6.25896,-7.39695 -1.99149,18.49239 6.25896,-17.92339 v 22.19086 l 7.11246,-25.60484 -0.2845,27.02733 8.81945,-31.29481 v 33.0018 l 15.0784,-56.04615 z"
       id="path4248" />
    <path
       style="fill:#2b1100;fill-opacity:1;stroke:none;stroke-width:3;stroke-linecap:round;stroke-linejoin:round"
       d="m 170.98343,154.89301 5.97446,43.52822 -6.25896,-7.39695 1.99149,18.49239 -6.25896,-17.92339 v 22.19086 l -7.11246,-25.60484 0.2845,27.02733 -8.81945,-31.29481 v 33.0018 l -15.0784,-56.04615 z"
       id="path4166" />
    <path
       id="path994"
       style="fill:#d38d5f;stroke:none;stroke-width:0.0999997;stroke-linejoin:round"
       d="m 109.41641,34.099301 c -4.26766,0.0656 -8.80848,0.428585 -13.601237,0.909505 -19.171039,1.923685 -42.388912,5.744042 -53.582002,19.919972 -11.19309,14.17593 -10.359165,38.705475 -13.114186,56.752352 -2.755022,18.04687 -9.0979,29.61124 -10.030395,46.58501 -0.932497,16.97378 3.544263,39.35528 12.125873,55.39584 8.581611,16.04055 21.266549,25.73943 33.765381,31.52134 12.498833,5.7819 24.810078,7.64668 36.562366,5.78129 11.7523,-1.86537 22.94555,-7.46037 36.8931,-21.34236 13.94756,-13.88199 30.64889,-36.04998 34.53794,-56.90995 3.88905,-20.86 -5.03555,-40.41035 -11.79515,-63.47288 C 154.41852,86.176884 149.8255,59.606047 139.96752,46.332405 132.57403,36.377172 122.2194,33.902491 109.41641,34.099301 Z M 66.919003,103.13901 a 15.131315,15.131315 0 0 1 15.130859,15.13086 15.131315,15.131315 0 0 1 -15.130859,15.13216 15.131315,15.131315 0 0 1 -15.132151,-15.13216 15.131315,15.131315 0 0 1 15.132151,-15.13086 z m 51.574367,0 a 15.131315,15.131315 0 0 1 15.13086,15.13086 15.131315,15.131315 0 0 1 -15.13086,15.13216 15.131315,15.131315 0 0 1 -15.13215,-15.13216 15.131315,15.131315 0 0 1 15.13215,-15.13086 z" />
    <path
       style="color:#000000;fill:#2b1100;stroke-linecap:round;stroke-linejoin:round;-inkscape-stroke:none"
       d="m 96.78125,142.59143 a 1.5,1.5 0 0 0 -1.138672,0.13476 1.5,1.5 0 0 0 -0.576172,2.04297 c 3.75536,6.706 7.502974,13.41845 9.380864,17.88672 0.93895,2.23415 1.35348,3.87571 1.30078,4.87109 -0.0527,0.99539 -0.30974,1.44744 -1.42188,2.10938 -2.22432,1.32391 -8.023906,2.28513 -13.791014,3.08984 a 1.5,1.5 0 0 0 -1.279297,1.69336 1.5,1.5 0 0 0 1.69336,1.27734 c 5.767108,-0.80471 11.501791,-1.45377 14.910161,-3.48242 1.7042,-1.01434 2.78657,-2.67483 2.88476,-4.5293 0.0982,-1.85446 -0.52563,-3.79862 -1.53125,-6.1914 -2.01125,-4.78559 -5.77394,-11.48541 -9.529296,-18.19141 a 1.5,1.5 0 0 0 -0.902344,-0.71093 z"
       id="path36014" />
    <path
       style="color:#000000;fill:#2b1100;stroke-linecap:round;stroke-linejoin:round;-inkscape-stroke:none"
       d="m 84.871094,157.61291 c -2.413902,0.93874 -4.991427,1.86251 -6.820313,3.69141 -1.828888,1.82889 -2.401093,4.16035 -2.9375,6.17187 a 1.5,1.5 0 0 0 1.0625,1.83594 1.5,1.5 0 0 0 1.835938,-1.0625 c 0.536407,-2.01152 1.038307,-3.70237 2.160156,-4.82422 1.121851,-1.12186 3.371255,-2.07689 5.785156,-3.01563 a 1.5,1.5 0 0 0 0.855469,-1.9414 1.5,1.5 0 0 0 -1.941406,-0.85547 z"
       id="path36018" />
    <path
       id="path1114"
       style="fill:#967257;fill-opacity:1;stroke:none;stroke-width:3;stroke-linecap:round;stroke-linejoin:round"
       d="m 145.92236,61.69574 c -4.75414,-0.0069 -7.72139,1.843479 -5.85442,12.779066 1.99144,11.664625 9.4834,33.665394 15.26832,44.286704 5.39761,9.9102 9.29037,9.90917 11.83132,9.55704 -1.94103,-6.14871 -4.05118,-12.46642 -5.9893,-19.07894 -4.69126,-16.005774 -8.34026,-33.69766 -13.42864,-47.465321 -0.28818,-0.02223 -0.57429,-0.04181 -0.85318,-0.05426 -0.33192,-0.01482 -0.65715,-0.02384 -0.9741,-0.02429 z M 36.720757,71.636737 c -0.723514,-0.02611 -1.477248,0.07455 -2.248442,0.309541 -3.270856,12.802701 -3.516993,27.707143 -5.353162,39.735042 -1.399053,9.16455 -3.722294,16.65677 -5.793444,24.03523 2.52173,0.79895 5.361282,-0.1061 7.732346,-2.30322 5.168236,-4.7891 8.107584,-15.69467 10.478428,-27.21695 2.370844,-11.522274 4.172734,-23.660286 1.233001,-30.014184 -1.286134,-2.779831 -3.479496,-4.452689 -6.048727,-4.545459 z" />
    <path
       id="path4015"
       style="fill:#2b1100;fill-opacity:1;stroke:none;stroke-width:3;stroke-linecap:round;stroke-linejoin:round"
       d="m 111.78801,34.094841 c -0.78093,-0.0097 -1.57124,-0.0076 -2.37143,0.0047 -4.26766,0.0656 -8.80848,0.428586 -13.601237,0.909506 -19.17104,1.923685 -42.389172,5.743785 -53.582262,19.919714 -8.781989,11.122297 -10.165019,28.588264 -11.681973,44.325977 l 5.011062,-12.072131 3.414263,-1.991608 6.828007,19.915061 0.284221,-23.044588 5.690092,10.526491 1.706872,-15.647626 6.25905,17.354498 3.982704,-17.069761 7.112744,14.224974 3.698481,-15.647625 4.836398,19.061369 3.129523,-18.492412 6.259053,20.484021 4.836395,-17.638715 6.25905,18.492412 3.413747,-17.070277 6.54379,15.931843 0.85317,-22.475113 7.68171,14.509192 3.9827,-27.027292 3.98322,26.174114 3.69848,-12.5181 3.41374,15.931844 4.55218,-19.630327 6.82801,22.475632 V 80.638772 l 6.54327,13.371793 4.32997,-5.213636 C 151.32512,71.952014 146.97812,55.771793 139.96769,46.332337 133.03629,36.999306 123.50202,34.241008 111.78801,34.094841 Z" />
    <path
       style="fill:none;stroke:#2b1100;stroke-width:3;stroke-linecap:round;stroke-linejoin:round;stroke-opacity:1"
       d="m 64.970839,101.11325 c -8.375992,0.68664 -16.066507,1.67844 -20.292794,8.35451 -4.226287,6.67606 -4.987707,19.03524 1.78951,24.87174 6.777218,5.8365 21.091945,5.14988 29.125264,1.44963 8.033319,-3.70024 9.784623,-10.41401 11.383691,-16.93725 1.599067,-6.52323 3.045798,-12.85554 -0.761388,-15.83113 -3.807185,-2.9756 -12.868291,-2.59413 -21.244283,-1.9075 z"
       id="path13851"
       inkscape:path-effect="#path-effect13853"
       inkscape:original-d="m 64.285259,100.8081 c -7.690369,0.99212 -15.380884,1.98393 -23.072014,2.97547 -0.761168,12.36027 -1.522589,24.71945 -2.284358,37.0791 14.315901,-0.68636 28.630628,-1.37298 42.945928,-2.05994 1.751677,-6.71375 3.502982,-13.42752 5.254022,-20.14173 1.44709,-6.33227 2.893819,-12.66458 4.34028,-18.997312 -9.061167,0.381772 -18.122273,0.763242 -27.183858,1.144412 z"
       sodipodi:nodetypes="ccccccc" />
    <path
       style="fill:none;stroke:#2b1100;stroke-width:3;stroke-linecap:round;stroke-linejoin:round;stroke-opacity:1"
       d="m 123.03398,101.11325 c 8.37599,0.68664 16.0665,1.67844 20.29279,8.35451 4.22629,6.67606 4.98771,19.03524 -1.78951,24.87174 -6.77721,5.8365 -21.09194,5.14988 -29.12526,1.44963 -8.03332,-3.70024 -9.78463,-10.41401 -11.38369,-16.93725 -1.59907,-6.52323 -3.045801,-12.85554 0.76139,-15.83113 3.80718,-2.9756 12.86828,-2.59413 21.24428,-1.9075 z"
       id="path16287"
       inkscape:path-effect="#path-effect16291"
       inkscape:original-d="m 123.71956,100.8081 c 7.69037,0.99212 15.38088,1.98393 23.07201,2.97547 0.76117,12.36027 1.52259,24.71945 2.28436,37.0791 -14.3159,-0.68636 -28.63063,-1.37298 -42.94593,-2.05994 -1.75167,-6.71375 -3.50298,-13.42752 -5.25402,-20.14173 -1.44709,-6.33227 -2.893819,-12.66458 -4.34028,-18.997312 9.06117,0.381772 18.12227,0.763242 27.18386,1.144412 z"
       sodipodi:nodetypes="ccccccc" />
    <path
       style="fill:none;stroke:#2b1100;stroke-width:3;stroke-linecap:round;stroke-linejoin:round;stroke-opacity:1"
       d="m 72.823762,100.58531 c 12.808128,0 25.615991,0 38.423588,0"
       id="path16359"
       inkscape:path-effect="#path-effect16361"
       inkscape:original-d="m 72.823762,100.58531 c 12.808128,2.6e-4 25.615991,2.6e-4 38.423588,0" />
    <path
       style="fill:none;stroke:#2b1100;stroke-width:3;stroke-linecap:round;stroke-linejoin:round;stroke-opacity:1"
       d="m 145.24519,113.86257 c 5.43186,-0.20118 10.86346,-0.40235 16.29482,-0.60351"
       id="path16363"
       inkscape:path-effect="#path-effect16365"
       inkscape:original-d="m 145.24519,113.86257 c 5.43187,-0.20091 10.86347,-0.40208 16.29482,-0.60351" />
    <path
       style="fill:none;stroke:#2b1100;stroke-width:3;stroke-linecap:round;stroke-linejoin:round;stroke-opacity:1"
       d="m 28.566233,113.86257 c 4.694232,-0.20118 9.388208,-0.40235 14.081943,-0.60351"
       id="path16553"
       inkscape:path-effect="#path-effect16557"
       inkscape:original-d="m 28.566233,113.86257 c 4.694244,-0.20091 9.38822,-0.40208 14.081943,-0.60351"
       sodipodi:nodetypes="cc" />
  </g>
</svg>
