<?xml version="1.0" encoding="UTF-8" standalone="no"?>
<!-- Created with Inkscape (http://www.inkscape.org/) -->

<svg
   width="731.83801"
   height="1080"
   viewBox="0 0 193.63214 285.75001"
   version="1.1"
   id="svg5"
   inkscape:version="1.1.2 (b8e25be833, 2022-02-05)"
   sodipodi:docname="FaceTest5.svg"
   xmlns:inkscape="http://www.inkscape.org/namespaces/inkscape"
   xmlns:sodipodi="http://sodipodi.sourceforge.net/DTD/sodipodi-0.dtd"
   xmlns="http://www.w3.org/2000/svg"
   xmlns:svg="http://www.w3.org/2000/svg">
  <sodipodi:namedview
     id="namedview7"
     pagecolor="#ffffff"
     bordercolor="#666666"
     borderopacity="1.0"
     inkscape:pageshadow="2"
     inkscape:pageopacity="0.0"
     inkscape:pagecheckerboard="0"
     inkscape:document-units="px"
     showgrid="false"
     inkscape:zoom="0.93"
     inkscape:cx="349.46237"
     inkscape:cy="475.26882"
     inkscape:window-width="1920"
     inkscape:window-height="1057"
     inkscape:window-x="-8"
     inkscape:window-y="-8"
     inkscape:window-maximized="1"
     inkscape:current-layer="layer1"
     width="731.83801px"
     units="px"
     height="1080px" />
  <defs
     id="defs2">
    <inkscape:path-effect
       effect="bspline"
       id="path-effect4566"
       is_visible="true"
       lpeversion="1"
       weight="33.333333"
       steps="2"
       helper_size="0"
       apply_no_weight="true"
       apply_with_weight="true"
       only_selected="false" />
    <inkscape:path-effect
       effect="bspline"
       id="path-effect2865"
       is_visible="true"
       lpeversion="1"
       weight="33.333333"
       steps="2"
       helper_size="0"
       apply_no_weight="true"
       apply_with_weight="true"
       only_selected="false" />
    <inkscape:path-effect
       effect="bspline"
       id="path-effect1136"
       is_visible="true"
       lpeversion="1"
       weight="33.333333"
       steps="2"
       helper_size="0"
       apply_no_weight="true"
       apply_with_weight="true"
       only_selected="false" />
    <inkscape:path-effect
       effect="bspline"
       id="path-effect1116"
       is_visible="true"
       lpeversion="1"
       weight="33.333333"
       steps="2"
       helper_size="0"
       apply_no_weight="true"
       apply_with_weight="true"
       only_selected="false" />
    <inkscape:path-effect
       effect="bspline"
       id="path-effect1112"
       is_visible="true"
       lpeversion="1"
       weight="33.333333"
       steps="2"
       helper_size="0"
       apply_no_weight="true"
       apply_with_weight="true"
       only_selected="false" />
    <inkscape:path-effect
       effect="bspline"
       id="path-effect36020"
       is_visible="true"
       lpeversion="1"
       weight="33.333333"
       steps="2"
       helper_size="0"
       apply_no_weight="true"
       apply_with_weight="true"
       only_selected="false" />
    <inkscape:path-effect
       effect="bspline"
       id="path-effect36016"
       is_visible="true"
       lpeversion="1"
       weight="33.333333"
       steps="2"
       helper_size="0"
       apply_no_weight="true"
       apply_with_weight="true"
       only_selected="false" />
    <inkscape:path-effect
       effect="bspline"
       id="path-effect36012"
       is_visible="true"
       lpeversion="1"
       weight="33.333333"
       steps="2"
       helper_size="0"
       apply_no_weight="true"
       apply_with_weight="true"
       only_selected="false" />
    <inkscape:path-effect
       effect="bspline"
       id="path-effect7365"
       is_visible="true"
       lpeversion="1"
       weight="33.333333"
       steps="2"
       helper_size="0"
       apply_no_weight="true"
       apply_with_weight="true"
       only_selected="false" />
    <inkscape:path-effect
       effect="bspline"
       id="path-effect3539"
       is_visible="true"
       lpeversion="1"
       weight="33.333333"
       steps="2"
       helper_size="0"
       apply_no_weight="true"
       apply_with_weight="true"
       only_selected="false" />
    <inkscape:path-effect
       effect="bspline"
       id="path-effect1191"
       is_visible="true"
       lpeversion="1"
       weight="33.333333"
       steps="2"
       helper_size="0"
       apply_no_weight="true"
       apply_with_weight="true"
       only_selected="false" />
    <inkscape:path-effect
       effect="bspline"
       id="path-effect996"
       is_visible="true"
       lpeversion="1"
       weight="33.333333"
       steps="2"
       helper_size="0"
       apply_no_weight="true"
       apply_with_weight="true"
       only_selected="false" />
    <inkscape:path-effect
       effect="bspline"
       id="path-effect24081"
       is_visible="true"
       lpeversion="1"
       weight="33.333333"
       steps="2"
       helper_size="0"
       apply_no_weight="true"
       apply_with_weight="true"
       only_selected="false" />
    <inkscape:path-effect
       effect="bspline"
       id="path-effect25214"
       is_visible="true"
       lpeversion="1"
       weight="33.333333"
       steps="2"
       helper_size="0"
       apply_no_weight="true"
       apply_with_weight="true"
       only_selected="false" />
    <inkscape:path-effect
       effect="bspline"
       id="path-effect35121"
       is_visible="true"
       lpeversion="1"
       weight="33.333333"
       steps="2"
       helper_size="0"
       apply_no_weight="true"
       apply_with_weight="true"
       only_selected="false" />
    <inkscape:path-effect
       effect="bspline"
       id="path-effect35238"
       is_visible="true"
       lpeversion="1"
       weight="33.333333"
       steps="2"
       helper_size="0"
       apply_no_weight="true"
       apply_with_weight="true"
       only_selected="false" />
    <inkscape:path-effect
       effect="bspline"
       id="path-effect35242"
       is_visible="true"
       lpeversion="1"
       weight="33.333333"
       steps="2"
       helper_size="0"
       apply_no_weight="true"
       apply_with_weight="true"
       only_selected="false" />
    <inkscape:path-effect
       effect="bspline"
       id="path-effect35246"
       is_visible="true"
       lpeversion="1"
       weight="33.333333"
       steps="2"
       helper_size="0"
       apply_no_weight="true"
       apply_with_weight="true"
       only_selected="false" />
    <inkscape:path-effect
       effect="bspline"
       id="path-effect35762"
       is_visible="true"
       lpeversion="1"
       weight="33.333333"
       steps="2"
       helper_size="0"
       apply_no_weight="true"
       apply_with_weight="true"
       only_selected="false" />
  </defs>
  <g
     inkscape:label="Layer 1"
     inkscape:groupmode="layer"
     id="layer1">
    <path
       id="path994-2"
       style="fill:#ffcca4;stroke:none;stroke-width:0.0999997;stroke-linejoin:round;fill-opacity:1"
       d="m 109.41641,34.099301 c -4.26766,0.0656 -8.80848,0.428585 -13.601237,0.909505 -19.171039,1.923685 -42.388912,5.744043 -53.582002,19.919972 -11.19309,14.17593 -10.359165,38.705475 -13.114186,56.752352 -2.755022,18.04687 -9.0979,29.61124 -10.030395,46.58501 -0.932497,16.97378 3.544263,39.35528 12.125873,55.39584 8.581611,16.04055 21.266549,25.73943 33.765381,31.52134 12.498833,5.7819 24.810078,7.64668 36.562366,5.78129 11.7523,-1.86537 22.94555,-7.46037 36.8931,-21.34236 13.94756,-13.88199 30.64889,-36.04998 34.53794,-56.90995 3.88905,-20.86 -5.03555,-40.41035 -11.79515,-63.47288 C 154.41852,86.176884 149.8255,59.606047 139.96752,46.332405 132.57403,36.377172 122.2194,33.902491 109.41641,34.099301 Z M 66.919003,103.13901 a 15.131315,15.131315 0 0 1 15.130859,15.13086 15.131315,15.131315 0 0 1 -15.130859,15.13216 15.131315,15.131315 0 0 1 -15.132151,-15.13216 15.131315,15.131315 0 0 1 15.132151,-15.13086 z m 51.574367,0 a 15.131315,15.131315 0 0 1 15.13086,15.13086 15.131315,15.131315 0 0 1 -15.13086,15.13216 15.131315,15.131315 0 0 1 -15.13215,-15.13216 15.131315,15.131315 0 0 1 15.13215,-15.13086 z" />
    <path
       id="rect1160"
       style="fill:#c49675;stroke:none;stroke-width:11.3386;stroke-linecap:round;stroke-linejoin:round;fill-opacity:1"
       d="M 422.50586 128.86328 C 419.5543 128.82645 416.5673 128.83242 413.54297 128.87891 C 397.41323 129.12684 380.25108 130.49876 362.13672 132.31641 C 289.67925 139.58703 201.92569 154.02716 159.62109 207.60547 C 117.3165 261.18379 120.46932 353.89289 110.05664 422.10156 C 99.643959 490.3102 75.670875 534.01904 72.146484 598.17188 C 68.622086 662.32474 85.542131 746.91528 117.97656 807.54102 C 150.411 868.16672 198.35407 904.82485 245.59375 926.67773 C 292.83343 948.53058 339.36315 955.57764 383.78125 948.52734 C 428.19939 941.47713 470.50555 920.33064 523.2207 867.86328 C 575.93589 815.39592 639.05904 731.61231 653.75781 652.77148 C 668.45658 573.93054 634.72583 500.03851 609.17773 412.87305 C 583.62972 325.70756 566.27023 225.28333 529.01172 175.11523 C 502.81431 139.84079 466.77928 129.41572 422.50586 128.86328 z M 434.64062 204.3125 C 455.94747 204.05769 475.99977 213.68467 493.70898 234.68945 C 515.50494 260.5415 533.7515 303.62604 548.45117 355.83594 C 563.15084 408.04583 574.30294 469.37796 581.90625 514.99805 C 589.50956 560.61814 593.56472 590.52343 578.61133 614.85352 C 563.65793 639.1836 529.69709 657.93895 489.90625 671.625 C 450.11541 685.31105 404.49689 693.92669 356.5957 698.74219 C 308.69452 703.55768 258.5122 704.57143 221.25586 695.70117 C 183.99952 686.83091 159.66992 668.0781 145.47656 641.21289 C 131.28321 614.34768 127.22825 579.37279 130.26953 535.01953 C 133.31081 490.66628 143.44833 436.93702 151.55859 387.26172 C 159.66886 337.58642 165.75118 291.9679 176.14258 262.31445 C 186.53398 232.66101 201.23441 218.97432 217.70898 214.66602 C 234.18356 210.35771 252.4311 215.42633 272.45312 223.2832 C 292.47516 231.14007 314.27066 241.78474 339.36133 236.96875 C 364.45199 232.15276 392.83738 211.87766 419.70312 206.04883 C 424.74046 204.95592 429.72366 204.3713 434.64062 204.3125 z "
       transform="scale(0.26458334)" />
    <path
       style="color:#000000;fill:#2b1100;stroke-linecap:round;stroke-linejoin:round;-inkscape-stroke:none"
       d="m 96.78125,142.59143 a 1.5,1.5 0 0 0 -1.138672,0.13476 1.5,1.5 0 0 0 -0.576172,2.04297 c 3.75536,6.706 7.502974,13.41845 9.380864,17.88672 0.93895,2.23415 1.35348,3.87571 1.30078,4.87109 -0.0527,0.99539 -0.30974,1.44744 -1.42188,2.10938 -2.22432,1.32391 -8.023906,2.28513 -13.791014,3.08984 a 1.5,1.5 0 0 0 -1.279297,1.69336 1.5,1.5 0 0 0 1.69336,1.27734 c 5.767108,-0.80471 11.501791,-1.45377 14.910161,-3.48242 1.7042,-1.01434 2.78657,-2.67483 2.88476,-4.5293 0.0982,-1.85446 -0.52563,-3.79862 -1.53125,-6.1914 -2.01125,-4.78559 -5.77394,-11.48541 -9.529296,-18.19141 a 1.5,1.5 0 0 0 -0.902344,-0.71093 z"
       id="path36014-7" />
    <path
       style="color:#000000;fill:#2b1100;stroke-linecap:round;stroke-linejoin:round;-inkscape-stroke:none"
       d="m 84.871094,157.61291 c -2.413902,0.93874 -4.991427,1.86251 -6.820313,3.69141 -1.828888,1.82889 -2.401093,4.16035 -2.9375,6.17187 a 1.5,1.5 0 0 0 1.0625,1.83594 1.5,1.5 0 0 0 1.835938,-1.0625 c 0.536407,-2.01152 1.038307,-3.70237 2.160156,-4.82422 1.121851,-1.12186 3.371255,-2.07689 5.785156,-3.01563 a 1.5,1.5 0 0 0 0.855469,-1.9414 1.5,1.5 0 0 0 -1.941406,-0.85547 z"
       id="path36018-2" />
    <path
       style="fill:#940000;fill-opacity:1;stroke:none;stroke-width:3;stroke-linecap:round;stroke-linejoin:round"
       d="m 29.6393,88.649353 c 4.828232,3.755065 13.947967,5.230317 23.872462,5.56556 9.924496,0.335243 20.653383,-0.469424 31.784944,-1.072935 11.131561,-0.603511 22.665114,-1.005845 35.070764,-1.877605 12.40564,-0.87176 25.68263,-2.212871 33.19289,-3.956344 7.51026,-1.743473 9.2537,-3.889248 9.79018,-7.845531 0.53648,-3.956283 -0.13408,-9.723061 -1.74333,-12.941901 -1.60925,-3.218841 -4.15736,-3.889396 -7.71148,-7.912768 -3.55413,-4.023371 -8.1139,-11.399481 -13.74669,-17.501751 -5.63279,-6.102269 -12.33834,-10.93027 -21.72646,-12.673856 -9.38811,-1.743586 -21.45811,-0.402475 -32.656727,1.341017 -11.198617,1.743493 -21.525168,3.88927 -29.505075,7.175109 -7.979907,3.285838 -13.612571,7.711502 -17.501935,13.344444 -3.889364,5.632942 -6.03514,12.472606 -8.247957,16.428862 -2.212816,3.956257 -4.492705,5.029145 -5.364483,8.58339 -0.871779,3.554245 -0.335334,9.589243 4.492897,13.344309 z"
       id="path2863"
       inkscape:path-effect="#path-effect2865"
       inkscape:original-d="m 25.347498,90.929118 c 9.119999,1.475515 18.239734,2.950769 27.359205,4.425755 10.729576,-0.804434 21.458463,-1.609101 32.187298,-2.414048 11.534276,-0.402085 23.067829,-0.804418 34.601349,-1.207024 13.27779,-1.3409 26.55478,-2.68201 39.83178,-4.023413 1.74378,-2.145596 3.48722,-4.291375 5.23044,-6.437458 -0.67032,-5.766742 -1.34088,-11.533519 -2.01171,-17.300674 -2.54795,-0.670316 -5.09606,-1.340874 -7.64449,-2.011706 -4.55969,-7.376139 -9.11947,-14.752246 -13.6796,-22.128769 -6.70555,-4.827926 -13.41111,-9.655924 -20.11706,-14.484283 -12.07021,1.341428 -24.140208,2.68254 -36.210709,4.023412 -10.326701,2.146128 -20.653253,4.291904 -30.980274,6.437461 -5.632628,4.426106 -11.265292,8.85177 -16.898333,13.27726 -2.145598,6.840202 -4.291375,13.679866 -6.43746,20.519404 -2.279714,1.073195 -4.559603,2.146083 -6.839801,3.218727 0.53673,6.035506 1.073174,12.070504 1.609365,18.105356 z" />
    <path
       style="fill:none;fill-opacity:1;stroke:#640000;stroke-width:3;stroke-linecap:round;stroke-linejoin:round;stroke-opacity:1"
       d="M 157.8112,65.183467 C 135.72195,68.418433 113.63289,71.65337 92.325376,72.527825 71.017866,73.40228 50.493529,71.916131 29.9685,70.429933"
       id="path4564"
       inkscape:path-effect="#path-effect4566"
       inkscape:original-d="m 157.8112,65.183467 c -22.08921,3.235264 -44.17827,6.4702 -66.26846,9.705 C 71.017848,73.402524 50.493511,71.916376 29.9685,70.429933"
       sodipodi:nodetypes="ccc" />
  </g>
</svg>
